<svg width="25" height="25" viewBox="0 0 25 25" fill="none" xmlns="http://www.w3.org/2000/svg">
<g clip-path="url(#clip0_23_17)">
<path d="M0 12.3104V2.34375C0 1.04932 1.04932 0 2.34375 0H12.3104C12.932 3.25037e-06 13.5282 0.246935 13.9677 0.686475L24.3135 11.0323C25.2288 11.9476 25.2288 13.4315 24.3135 14.3468L14.3468 24.3135C13.4315 25.2288 11.9476 25.2288 11.0323 24.3135L0.686475 13.9677C0.246935 13.5282 3.25037e-06 12.932 0 12.3104ZM5.46875 3.125C4.17432 3.125 3.125 4.17432 3.125 5.46875C3.125 6.76318 4.17432 7.8125 5.46875 7.8125C6.76318 7.8125 7.8125 6.76318 7.8125 5.46875C7.8125 4.17432 6.76318 3.125 5.46875 3.125Z" fill="#005118"/>
</g>
<defs>
<clipPath id="clip0_23_17">
<rect width="25" height="25" fill="white"/>
</clipPath>
</defs>
</svg>
